# Blender v2.91.2 OBJ File: 'arrow.blend'
# www.blender.org
mtllib arrow.mtl
o Box1
v -0.020612 0.635296 -1.514429
v -0.023514 0.834193 -1.493649
v 0.472443 0.789039 -0.992180
v 0.475346 0.590142 -1.012960
v -0.527427 0.775326 -1.000574
v -0.524525 0.576430 -1.021353
vn -0.0069 -0.1040 0.9946
vn 0.7123 0.0832 -0.6970
vn -0.7018 0.0639 -0.7095
vn 0.0145 -0.9945 -0.1039
vn -0.0145 0.9945 0.1039
usemtl Standard
s 1
f 5//1 4//1 3//1
f 4//2 2//2 3//2
f 5//3 1//3 6//3
f 4//4 6//4 1//4
f 2//5 5//5 3//5
f 5//1 6//1 4//1
f 4//2 1//2 2//2
f 5//3 2//3 1//3
o Box
v 0.234628 0.684519 -0.014075
v 0.237531 0.485623 -0.034854
v -0.265318 0.677220 -0.014034
v -0.262416 0.478324 -0.034814
v 0.235933 0.589508 -1.029442
v 0.233031 0.788405 -1.008663
v -0.264014 0.582209 -1.029402
v -0.266916 0.781106 -1.008622
vn 0.0016 -0.1039 0.9946
vn -0.0016 0.1039 -0.9946
vn 0.9999 0.0146 -0.0001
vn -0.9999 -0.0146 0.0001
vn -0.0145 0.9945 0.1039
vn 0.0145 -0.9945 -0.1039
usemtl Standard
s 1
f 9//6 8//6 7//6
f 13//7 12//7 11//7
f 12//8 8//8 11//8
f 13//9 9//9 14//9
f 14//10 7//10 12//10
f 10//11 11//11 8//11
f 9//6 10//6 8//6
f 13//7 14//7 12//7
f 12//8 7//8 8//8
f 13//9 10//9 9//9
f 14//10 9//10 7//10
f 10//11 13//11 11//11
